<svg xmlns="http://www.w3.org/2000/svg" version="1.1" xmlns:xlink="http://www.w3.org/1999/xlink" xmlns:svgjs="http://svgjs.dev/svgjs" width="1440" height="560" preserveAspectRatio="none" viewBox="0 0 1440 560"><g mask="url(&quot;#SvgjsMask1003&quot;)" fill="none"><path d="M621.14-71.97C507.18-30 552.2 310.73 323.48 311.93 94.75 313.13-116.03 129.24-271.85 127.13" stroke="rgba(87, 104, 192, 0.19)" stroke-width="2"></path><path d="M948.43-65.74C805.55-12.85 867.22 412.96 575.74 416.41 284.25 419.86 20.49 265.97-169.65 265.21" stroke="rgba(87, 104, 192, 0.19)" stroke-width="2"></path><path d="M622.43-29.66C510.15-26.05 436.64 137.19 208.98 146.35-18.68 155.51-88.99 347.86-204.47 353.55" stroke="rgba(87, 104, 192, 0.19)" stroke-width="2"></path><path d="M968.38-74.64C806.89-70.29 669.61 164.35 368.04 164.48 66.48 164.61-79.08 41.91-232.29 41.28" stroke="rgba(87, 104, 192, 0.19)" stroke-width="2"></path><path d="M1095.34-92.16C953.68-54.4 914.32 328.47 695.24 336.55 476.16 344.63 495.19 266.55 295.14 266.55 95.09 266.55-3.42 336.29-104.96 336.55" stroke="rgba(87, 104, 192, 0.19)" stroke-width="2"></path></g><defs><mask id="SvgjsMask1003"><rect width="1440" height="560" fill="#ffffff"></rect></mask></defs></svg>