<svg xmlns="http://www.w3.org/2000/svg" version="1.1" xmlns:xlink="http://www.w3.org/1999/xlink" xmlns:svgjs="http://svgjs.dev/svgjs" width="1440" height="560" preserveAspectRatio="none" viewBox="0 0 1440 560"><g mask="url(&quot;#SvgjsMask1007&quot;)" fill="none"><rect width="1440" height="560" x="0" y="0" fill="rgba(216, 217, 242, 1)"></rect><path d="M1140.11-99.71C1027.5-94.97 938.47 92.18 732.29 92.52 526.1 92.86 528.37 22.52 324.46 22.52 120.55 22.52 20.09 92.27-83.36 92.52" stroke="rgba(87, 104, 192, 0.19)" stroke-width="2"></path><path d="M763.19-107.11C649.27-41.21 710.15 344.49 500.26 348.95 290.37 353.41 112.39 182.97-25.61 180.95" stroke="rgba(87, 104, 192, 0.19)" stroke-width="2"></path><path d="M607.27-35.58C508.19-10.82 539.5 257.65 323.41 258.2 107.32 258.75-97.78 113.75-244.3 112.6" stroke="rgba(87, 104, 192, 0.19)" stroke-width="2"></path><path d="M639.52-85.68C498.36-61.04 427.62 287.58 205.5 288.68-16.61 289.78-110.64 107.67-228.51 103.88" stroke="rgba(87, 104, 192, 0.19)" stroke-width="2"></path><path d="M983.43-27.04C793.35 8.85 711.62 484.05 407.27 489.42 102.92 494.79-21.6 366.91-168.89 366.22" stroke="rgba(87, 104, 192, 0.19)" stroke-width="2"></path></g><defs><mask id="SvgjsMask1007"><rect width="1440" height="560" fill="#ffffff"></rect></mask></defs></svg>