<svg xmlns="http://www.w3.org/2000/svg" version="1.1" xmlns:xlink="http://www.w3.org/1999/xlink" xmlns:svgjs="http://svgjs.dev/svgjs" width="1440" height="560" preserveAspectRatio="none" viewBox="0 0 1440 560"><g mask="url(&quot;#SvgjsMask1011&quot;)" fill="none"><rect width="1440" height="560" x="0" y="0" fill="rgba(216, 217, 242, 1)"></rect><path d="M829.04 585.9C944.47 574.95 994.73 346.77 1217.14 331.93 1439.55 317.09 1497.88 151.77 1605.24 147.13" stroke="rgba(87, 104, 192, 0.19)" stroke-width="2"></path><path d="M291.3 668.38C445.74 624.64 483.81 201.84 721.51 191.77 959.22 181.7 936.62 261.77 1151.73 261.77 1366.83 261.77 1472.97 192 1581.94 191.77" stroke="rgba(87, 104, 192, 0.19)" stroke-width="2"></path><path d="M739.22 603.42C862.26 601.78 954.4 466.26 1209.54 458.23 1464.68 450.2 1546.69 214 1679.86 206.23" stroke="rgba(87, 104, 192, 0.19)" stroke-width="2"></path><path d="M691.19 590.01C807.04 544.98 758.2 194.27 989.58 192.32 1220.97 190.37 1431.75 353.28 1586.37 354.72" stroke="rgba(87, 104, 192, 0.19)" stroke-width="2"></path><path d="M366.4 599.97C573.24 572.75 693.41 97.94 1032.15 96.85 1370.89 95.76 1519.99 344.68 1697.9 348.85" stroke="rgba(87, 104, 192, 0.19)" stroke-width="2"></path></g><defs><mask id="SvgjsMask1011"><rect width="1440" height="560" fill="#ffffff"></rect></mask></defs></svg>